/* XPM */
static char *magick[] = {
/* columns rows colors chars-per-pixel */
"22 22 20 1",
"  c Gray12",
". c #272727272727",
"X c Gray18",
"o c #353535353535",
"O c Gray24",
"+ c #434343434343",
"@ c Gray31",
"# c Gray33",
"$ c #5f5f5f5f5f5f",
"% c Gray39",
"& c Gray43",
"* c #747474747474",
"= c Gray48",
"- c Gray53",
"; c Gray56",
": c #979797979797",
"> c #989898989898",
", c Gray72",
"< c #c0c0c0c0c0c0",
"1 c None",
/* pixels */
"1111111111111111111111",
"1111111111111111111111",
"1111111111111111111111",
"11111,11,11,1111111111",
"111,,>>>>>>,,111111,11",
"11,,:*&&&&&*>,111,,,,,",
"1,,-$@$%%%$#*>,1,,;;>1",
",,;$@&>>>>:&#%;>,;#&>1",
"1>*@&>,111,>&##==@o$>1",
"1>%$>,11111,>;#+OX.$>1",
"1>%&>11111111>%o. .$>1",
"1>%&>111111,,:#.  .$>1",
"1,*%:,11111,:#o. ..#>1",
",,;%&>,111,>=@OOOo+&,,",
"11>-%=,,111,:------>,1",
"111>-;>,11,,,,,,,,,,,1",
"1111,>1111111111111111",
"1111111111111111111111",
"1111111111111111111111",
"1111111111111111111111",
"1111111111111111111111",
"1111111111111111111111"
};
