/* XPM */
static char *magick[] = {
/* columns rows colors chars-per-pixel */
"22 22 18 1",
"  c Gray12",
". c #272727272727",
"X c #2f2f2f2f2f2f",
"o c #373737373737",
"O c #3c3c3c3c3c3c",
"+ c #464646464646",
"@ c #4b4b4b4b4b4b",
"# c Gray34",
"$ c Gray37",
"% c #626262626262",
"& c Gray43",
"* c Gray46",
"= c Gray53",
"- c #8e8e8e8e8e8e",
"; c #9a9a9a9a9a9a",
": c #b1b1b1b1b1b1",
"> c #c0c0c0c0c0c0",
", c None",
/* pixels */
",,,,,,,,,,,,,,,,,,,,,,",
",,,,,,,,,,,,,,,,,,,,,,",
",,,,,,,,,,,,,,,,,,,,,,",
",,,,,,,,,,,,,,,,,,,,,,",
",,,,,,,,,,:,:,:,:,,,,,",
",:,,,,,,,::;;;;;:::,,,",
",::::,,,:;&%%%%$$-::,,",
",:*=:,::-%#%***&@#*:,,",
"::$@*;;*##*;:::;=#@=::",
",;$X+%%#$=:,,,,,:*#%:,",
",;#..Xo%;::,,,,,,;%%;:",
",;$.  X%;:,,,,,,,:&%:,",
",;$.  .O&::,,,,,:;%&;,",
",:$oXXXX+*::,,,::*%=:,",
"::-*&&&**-:,,,,:=%*::,",
",,::::::::::,,::=*;:,,",
",,,,,,,,,,,,,,,:;::,,,",
",,,,,,,,,,,,,,,,,,,,,,",
",,,,,,,,,,,,,,,,,,,,,,",
",,,,,,,,,,,,,,,,,,,,,,",
",,,,,,,,,,,,,,,,,,,,,,",
",,,,,,,,,,,,,,,,,,,,,,"
};
