/* XPM */
static char *magick[] = {
/* columns rows colors chars-per-pixel */
"22 22 29 1",
"  c Gray12",
". c #272727272727",
"X c #2f2f2f2f2f2f",
"o c Gray21",
"O c #3f3f3f3f3f3f",
"+ c Gray28",
"@ c #4c4c4c4c4c4c",
"# c #565656565656",
"$ c #5f5f5f5f5f5f",
"% c #656565656565",
"& c Gray43",
"* c #767676767676",
"= c Gray",
"- c Gray53",
"; c #8e8e8e8e8e8e",
": c #979797979797",
"> c #9f9f9f9f9f9f",
", c #a7a7a7a7a7a7",
"< c #aeaeaeaeaeae",
"1 c #b7b7b7b7b7b7",
"2 c Gray75",
"3 c #c0c0c0c0c0c0",
"4 c Gray78",
"5 c #cececececece",
"6 c Gray83",
"7 c #dfdfdfdfdfdf",
"8 c #e9e9e9e9e9e9",
"9 c #f6f6f6f6f6f6",
"0 c None",
/* pixels */
"<<<<<<<<12000000000000",
"$$$$$$$%;1000000000000",
" O$$%$+.O-100000000000",
" *4655;X.@-10000000000",
".;7989<++O@;1121200000",
".;5<,4<@@+X@*-=-:10000",
".;1*%,1%OO@#%%$+$:1000",
".;5<,44:#%<222>@o$:100",
".;2:=--*@-79995&@@$:12",
".;1=$$$#+-65254*$$+$:2",
".;5<,>,;$-2-%:2=$#OO*1",
".;2-***%@=4,;161:>;#&<",
".-2-&%&$+-5<::>>:12*&<",
" *1<,,,;$-2-$$#$$;2=&<",
" O$%%%%#+=41::::>14=&<",
"$#$$$$$#+-5,;-;--<4=&<",
"<,<,<,<:$-2-$$$$%;2*&<",
"0000000,%=21,,>,,12*&<",
"0000000<%#--;-;-;;=#&<",
"0000000<=$$%%%%%%%$$=1",
"00000002<>>,>,>,>>,><2",
"0000000022222222222220"
};
