/* XPM */
static char *magick[] = {
/* columns rows colors chars-per-pixel */
"22 22 30 1",
"  c Gray6",
". c Gray9",
"X c Gray12",
"o c #272727272727",
"O c Gray18",
"+ c Gray21",
"@ c #3f3f3f3f3f3f",
"# c Gray28",
"$ c Gray31",
"% c Gray34",
"& c #5f5f5f5f5f5f",
"* c #676767676767",
"= c #6f6f6f6f6f6f",
"- c #777777777777",
"; c Gray",
": c #848484848484",
"> c Gray56",
", c #979797979797",
"< c #9a9a9a9a9a9a",
"1 c #a7a7a7a7a7a7",
"2 c Gray68",
"3 c Gray71",
"4 c #bebebebebebe",
"5 c #c0c0c0c0c0c0",
"6 c Gray78",
"7 c Gray81",
"8 c #d5d5d5d5d5d5",
"9 c #e7e7e7e7e7e7",
"0 c #f6f6f6f6f6f6",
"q c None",
/* pixels */
"qqqqqq42222234qqqqqqqq",
"q44442>*%%%&:244444qqq",
"2,;-;=@.O$+XO*--;>24qq",
";#+++o o*>-+ X++O@-24q",
"+O#%#Xo*:-:-+X@$$+@>4q",
".@==@O*<,=:<-O+*-$+;3q",
".#-*OO*:;;;:=@O%-%+;4q",
".#-*+o+++++++oO&-%+;3q",
".#--&$%$$$$$$$$=-%+;3q",
".#-;;---&%$%$%%%%+O;4q",
".#-;;;;=$#&**&*&#oO;4q",
".#-;;;;=#=366663-++=14",
".#-;;;;=$:800009,$%$-1",
".#-;;;;=$:862268>%*##=",
".#-;;;;=$:4,-=>61*&%@@",
".#-;;;;=$:7411376222-+",
".@=;-;-=$:72,>>,,><6,@",
"OO#%%%%$@;6,;----->6,@",
";#+++++O+-4422322334>@",
"3,;-;;;=$$=-;;;-;;--%+",
"q4343332:============*",
"qqqqqqq432222222222222"
};
